<?xml version="1.0" encoding="UTF-8"?><!DOCTYPE svg PUBLIC "-//W3C//DTD SVG 1.1//EN" "http://www.w3.org/Graphics/SVG/1.1/DTD/svg11.dtd"><svg xmlns="http://www.w3.org/2000/svg"><symbol id="cloudy" viewBox="0 0 24 24"><path d="M20.422 11.516c-.178-3.233-3.031-5.778-6.432-5.492A5.953 5.953 0 0 0 9.5 4C6.328 4 3.746 6.443 3.578 9.516 1.545 9.875 0 11.621 0 13.722 0 16.084 1.949 18 4.354 18H5.68a4.36 4.36 0 0 0 3.674 2h10.291C22.051 20 24 18.084 24 15.722c0-2.101-1.545-3.847-3.578-4.206zM5.027 16h-.673C3.057 16 2 14.978 2 13.722c0-2.118 2.104-2.597 3.488-2.512C5.438 9.854 5.625 6 9.5 6c.967 0 1.714.25 2.29.644-1.823.922-3.096 2.746-3.212 4.872-2.022.358-3.697 2.127-3.551 4.484zm14.618 2H9.354C8.057 18 7 16.978 7 15.722c0-2.118 2.104-2.597 3.488-2.512-.05-1.356.137-5.21 4.012-5.21 3.771 0 4.229 3.771 4.012 5.209 1.509-.105 3.488.437 3.488 2.513C22 16.978 20.943 18 19.645 18z"/></symbol><symbol id="rainy" viewBox="0 0 24 24"><path d="M20.422 7.516c-.178-3.233-3.031-5.778-6.432-5.492A5.953 5.953 0 0 0 9.5 0C6.328 0 3.746 2.443 3.578 5.516 1.545 5.875 0 7.621 0 9.722 0 12.084 1.949 14 4.354 14H5.68a4.36 4.36 0 0 0 3.674 2h10.291C22.051 16 24 14.084 24 11.722c0-2.101-1.545-3.847-3.578-4.206zM5.027 12h-.673C3.057 12 2 10.978 2 9.722 2 7.604 4.104 7.125 5.488 7.21 5.438 5.854 5.625 2 9.5 2c.967 0 1.714.25 2.29.644-1.823.922-3.096 2.746-3.212 4.872C6.556 7.874 4.881 9.643 5.027 12zm14.618 2H9.354C8.057 14 7 12.978 7 11.722c0-2.118 2.104-2.597 3.488-2.512C10.438 7.854 10.625 4 14.5 4c3.771 0 4.229 3.771 4.012 5.209C20.021 9.104 22 9.646 22 11.722 22 12.978 20.943 14 19.645 14zM15 22.5a1.5 1.5 0 1 1-2.999.001A1.5 1.5 0 0 1 15 22.5zm1.199-1.287L19 17.016 18.984 17l-4.176 2.813c.608.298 1.098.79 1.391 1.4zM10 22.5a1.5 1.5 0 1 1-2.999.001A1.5 1.5 0 0 1 10 22.5zm1.199-1.287L14 17.016 13.984 17l-4.176 2.813c.608.298 1.098.79 1.391 1.4zM5 22.5a1.5 1.5 0 1 1-2.999.001A1.5 1.5 0 0 1 5 22.5zm1.199-1.287L9 17.016 8.984 17l-4.176 2.813c.608.298 1.098.79 1.391 1.4z"/></symbol><symbol id="rainy_sunny" viewBox="0 0 24 24"><path d="M2.396 9H0V7h2.396v2zM10 2.542V0H8v2.542h2zm-4.793.876L3.348 1.559 1.934 2.973l1.859 1.859 1.414-1.414zm9.222-2.156l-1.875 1.875 1.414 1.414 1.875-1.875-1.414-1.414zM2.969 11.929L.916 13.702l1.303 1.517 2.053-1.773-1.303-1.517zM24 14.722C24 17.084 22.051 19 19.646 19H9.354C6.949 19 5 17.084 5 14.722c0-.77.211-1.49.574-2.113A4.93 4.93 0 0 1 4 9a5 5 0 0 1 5-5c1.328 0 2.523.528 3.414 1.376A5.993 5.993 0 0 1 14.5 5c3.172 0 5.753 2.443 5.922 5.516 2.033.359 3.578 2.105 3.578 4.206zM6 9c0 .86.37 1.628.955 2.172a4.357 4.357 0 0 1 1.623-.656 5.789 5.789 0 0 1 1.994-4.046A2.941 2.941 0 0 0 9 6C7.346 6 6 7.346 6 9zm.42 15l-1.41-1.41L7.6 20l1.41 1.41L6.42 24zm7.543-2.59L12.553 20l-2.59 2.59 1.41 1.41 2.59-2.59zm4.875 0L17.428 20l-2.59 2.59 1.41 1.41 2.59-2.59z"/></symbol><symbol id="rainy_thunder" viewBox="0 0 24 24"><path d="M6.406 17H10l-3.416 3h1.688L2 24l2.542-3H2.375l4.031-4zm14.016-9.484c-.178-3.232-3.031-5.777-6.432-5.491A5.95 5.95 0 0 0 9.5 0C6.328 0 3.746 2.443 3.578 5.516 1.545 5.875 0 7.621 0 9.722 0 12.084 1.949 14 4.354 14H5.68a4.36 4.36 0 0 0 3.674 2h10.291C22.051 16 24 14.084 24 11.722c0-2.101-1.545-3.847-3.578-4.206zM5.027 12h-.673C3.057 12 2 10.979 2 9.722c0-2.118 2.104-2.597 3.488-2.513C5.438 5.854 5.625 2 9.5 2c.967 0 1.714.25 2.29.645-1.823.921-3.096 2.745-3.212 4.871C6.556 7.873 4.881 9.643 5.027 12zm14.618 2H9.354C8.057 14 7 12.979 7 11.722c0-2.118 2.104-2.597 3.488-2.513C10.438 7.854 10.625 4 14.5 4c3.771 0 4.229 3.771 4.012 5.209C20.021 9.104 22 9.646 22 11.722 22 12.979 20.943 14 19.645 14zm-6.935 6.713l-1.41-1.41L13.603 17l1.41 1.41-2.303 2.303zM9.41 24L8 22.603l2.303-2.303 1.41 1.41L9.41 24zm8.175-3.287l-1.41-1.41L18.478 17l1.41 1.41-2.303 2.303zM14.284 24l-1.41-1.397 2.303-2.303 1.41 1.41L14.284 24z"/></symbol><symbol id="sunny" viewBox="0 0 24 24"><path d="M4.069 13H0v-2h4.069c-.041.328-.069.661-.069 1s.028.672.069 1zm3.034-7.312L4.222 2.807 2.808 4.221l2.881 2.881a8.019 8.019 0 0 1 1.414-1.414zm11.209 1.414l2.881-2.881-1.414-1.414-2.881 2.881a8.121 8.121 0 0 1 1.414 1.414zM12 4c.339 0 .672.028 1 .069V0h-2v4.069A8.047 8.047 0 0 1 12 4zm0 16c-.339 0-.672-.028-1-.069V24h2v-4.069A8.047 8.047 0 0 1 12 20zm7.931-9c.041.328.069.661.069 1s-.028.672-.069 1H24v-2h-4.069zm-3.033 7.312l2.88 2.88 1.415-1.414-2.88-2.88a8.127 8.127 0 0 1-1.415 1.414zm-11.21-1.415l-2.88 2.88 1.414 1.414 2.88-2.88a8.053 8.053 0 0 1-1.414-1.414zM8 12c0 2.206 1.794 4 4 4s4-1.794 4-4-1.794-4-4-4-4 1.794-4 4zm10 0a6 6 0 1 1-12 0 6 6 0 0 1 12 0z"/></symbol></svg>